<?xml version="1.0" encoding="UTF-8"?>
<svg version="1.1" xmlns="http://www.w3.org/2000/svg" width="503" height="73">
<path d="M0 0 C5.26528574 -0.0497158 10.53043254 -0.08586827 15.79589844 -0.10986328 C17.58433413 -0.11987439 19.37275366 -0.13348733 21.16113281 -0.15087891 C23.74287934 -0.17534362 26.32440804 -0.18653221 28.90625 -0.1953125 C30.09112 -0.21079636 30.09112 -0.21079636 31.29992676 -0.22659302 C39.59899084 -0.22824219 47.66122283 1.27183898 54 7 C57.123043 11.64400551 57.44756111 16.47238827 56.5703125 21.89453125 C54.9426891 27.90336011 51.2294009 30.99587608 46 34 C45.01 34.33 44.02 34.66 43 35 C43.9075 35.556875 44.815 36.11375 45.75 36.6875 C52.16060675 41.24889327 53.85069441 45.89597025 55.625 53.25 C56.02664474 54.88199952 56.43514654 56.51233182 56.8515625 58.140625 C57.02510254 58.85766602 57.19864258 59.57470703 57.37744141 60.31347656 C57.861063 62.21562143 57.861063 62.21562143 60 63 C61.67654729 62.72057545 63.34608154 62.39171753 65 62 C64.62118922 64.74637817 64.22167713 65.80049058 62.125 67.6875 C57.93059697 70.2781607 53.80276389 70.49349501 49 70 C44.47434517 68.78120979 41.51097404 67.00454777 39 63 C38.21630859 60.57397461 38.21630859 60.57397461 37.6484375 57.90234375 C37.43703125 56.93619141 37.225625 55.97003906 37.0078125 54.97460938 C36.79898438 53.97236328 36.59015625 52.97011719 36.375 51.9375 C35.94641735 49.94637645 35.51677666 47.95548026 35.0859375 45.96484375 C34.8082251 44.64407837 34.8082251 44.64407837 34.52490234 43.29663086 C34.00673419 40.85869523 34.00673419 40.85869523 33 38 C29.7 37.67 26.4 37.34 23 37 C23.14055641 40.77109855 23.28720986 44.54178769 23.4375 48.3125 C23.47681641 49.38435547 23.51613281 50.45621094 23.55664062 51.56054688 C23.59853516 52.58857422 23.64042969 53.61660156 23.68359375 54.67578125 C23.72025146 55.62364502 23.75690918 56.57150879 23.79467773 57.5480957 C23.91430187 60.136171 23.91430187 60.136171 25 63 C27.50447516 64.21869929 27.50447516 64.21869929 30 65 C30 65.99 30 66.98 30 68 C20.1 68 10.2 68 0 68 C0 67.01 0 66.02 0 65 C0.804375 64.71125 1.60875 64.4225 2.4375 64.125 C5.1326468 63.26737432 5.1326468 63.26737432 6 61 C6.09552741 59.32060239 6.1279525 57.63743396 6.12939453 55.95532227 C6.13254669 54.90405655 6.13569885 53.85279083 6.13894653 52.76966858 C6.1369223 51.63009201 6.13489807 50.49051544 6.1328125 49.31640625 C6.13424759 47.56673805 6.13424759 47.56673805 6.13571167 45.78172302 C6.13639318 43.31110582 6.13454091 40.84048683 6.13037109 38.36987305 C6.12502727 34.58182763 6.13031462 30.79390106 6.13671875 27.00585938 C6.13605787 24.60937474 6.1347765 22.21289017 6.1328125 19.81640625 C6.13483673 18.67885391 6.13686096 17.54130157 6.13894653 16.36927795 C6.13579437 15.31486008 6.13264221 14.2604422 6.12939453 13.17407227 C6.12859894 12.2452272 6.12780334 11.31638214 6.12698364 10.35939026 C6.09620584 7.84730767 6.09620584 7.84730767 5 5 C2.49552484 3.78130071 2.49552484 3.78130071 0 3 C0 2.01 0 1.02 0 0 Z M25.625 3.625 C23.55108131 5.37985428 23.47398459 6.34431325 23 9 C22.91973255 10.87877624 22.89234128 12.7601615 22.90234375 14.640625 C22.90556641 15.71054687 22.90878906 16.78046875 22.91210938 17.8828125 C22.92048828 18.99398438 22.92886719 20.10515625 22.9375 21.25 C22.94201172 22.37664063 22.94652344 23.50328125 22.95117188 24.6640625 C22.96294603 27.44276217 22.9793916 30.22135409 23 33 C30.01232672 33.32878872 30.01232672 33.32878872 36 30 C40.30119084 24.17460075 39.71692456 17.94928011 39 11 C38.08327355 7.96061528 37.4278056 7.24105133 35 5 C31.52535161 3.51086498 29.32468643 2.65139831 25.625 3.625 Z " fill="#FFFFFF" transform="translate(172,2)"/>
<path d="M0 0 C19.8 0 39.6 0 60 0 C59.67 8.25 59.34 16.5 59 25 C57.68 25 56.36 25 55 25 C54.65388672 23.69675781 54.65388672 23.69675781 54.30078125 22.3671875 C51.85584826 13.15453337 51.85584826 13.15453337 46 6 C43.97768753 5.29909616 43.97768753 5.29909616 41.828125 4.85546875 C39.93320313 4.43201172 39.93320313 4.43201172 38 4 C38.0611992 11.38030849 38.13829605 18.76027003 38.23571491 26.14019489 C38.28045028 29.56699079 38.31969888 32.99366695 38.34643555 36.4206543 C38.37741047 40.3601231 38.43220098 44.29908651 38.48828125 48.23828125 C38.49467117 49.46960281 38.5010611 50.70092438 38.50764465 51.96955872 C38.52743881 53.11051498 38.54723297 54.25147125 38.56762695 55.42700195 C38.58428154 56.93590752 38.58428154 56.93590752 38.60127258 58.47529602 C38.8058657 61.02576126 38.8058657 61.02576126 40.32780457 62.80534363 C42.73811785 64.52732903 45.10057651 64.67784183 48 65 C48 65.99 48 66.98 48 68 C35.79 68 23.58 68 11 68 C11 67.01 11 66.02 11 65 C11.56589844 64.86722656 12.13179687 64.73445313 12.71484375 64.59765625 C13.81505859 64.33275391 13.81505859 64.33275391 14.9375 64.0625 C15.66839844 63.88847656 16.39929688 63.71445313 17.15234375 63.53515625 C18.99969898 63.16112431 18.99969898 63.16112431 20 62 C20.12330088 60.1903226 20.17790183 58.37592163 20.20532227 56.56225586 C20.22526749 55.40112778 20.24521271 54.23999969 20.26576233 53.04368591 C20.28247482 51.780168 20.29918732 50.51665009 20.31640625 49.21484375 C20.33718735 47.92888809 20.35796844 46.64293243 20.37937927 45.31800842 C20.43466176 41.89364096 20.48404361 38.4692125 20.53222656 35.04473877 C20.58239665 31.55255686 20.6381061 28.0604639 20.69335938 24.56835938 C20.8010164 17.71231667 20.90244449 10.85619367 21 4 C19.54789906 4.44461504 18.09893236 4.89947514 16.65136719 5.35864258 C15.44054474 5.73693962 15.44054474 5.73693962 14.20526123 6.12287903 C10.9907193 7.40143147 9.71103341 9.03110292 8 12 C6.6819913 15.32395283 6.6819913 15.32395283 5.75 18.8125 C5.41484375 19.97394531 5.0796875 21.13539062 4.734375 22.33203125 C4.49203125 23.21246094 4.2496875 24.09289062 4 25 C2.68 25 1.36 25 0 25 C0 16.75 0 8.5 0 0 Z " fill="#FFFFFF" transform="translate(2,2)"/>
<path d="M0 0 C0.33 1.65 0.66 3.3 1 5 C1.639375 4.360625 2.27875 3.72125 2.9375 3.0625 C6.93458766 0.37058382 10.21608701 -0.22079598 15 0 C19.1462366 1.0267618 21.57448464 2.36172695 24 6 C24.556875 5.38125 25.11375 4.7625 25.6875 4.125 C28.85565176 1.21372541 31.03907845 0.02869641 35.40234375 -0.03515625 C39.49606855 0.21130883 42.20522957 0.41846066 45.5625 2.875 C48.20755989 6.78508853 48.18025438 10.24575544 48.31640625 14.85546875 C48.33718735 15.51710526 48.35796844 16.17874176 48.37937927 16.86042786 C48.44464727 18.96934852 48.50365344 21.07839135 48.5625 23.1875 C48.60570689 24.61915315 48.64932188 26.05079404 48.69335938 27.48242188 C48.80030506 30.98815154 48.90163641 34.49401786 49 38 C50.65 38.66 52.3 39.32 54 40 C54 40.99 54 41.98 54 43 C47.4 43 40.8 43 34 43 C34 42.01 34 41.02 34 40 C35.32 39.34 36.64 38.68 38 38 C38 27.77 38 17.54 38 7 C33.41390179 4.52559387 33.41390179 4.52559387 30.375 5.9375 C26.65092789 9.17156262 25.21756643 12.77652122 24.74560547 17.59985352 C24.66968042 20.50989478 24.68885104 23.40219173 24.75 26.3125 C24.75773437 27.81393555 24.75773437 27.81393555 24.765625 29.34570312 C24.62563837 34.33592382 24.62563837 34.33592382 26 39 C28.02463255 39.65213292 28.02463255 39.65213292 30 40 C30 40.99 30 41.98 30 43 C23.4 43 16.8 43 10 43 C10 42.01 10 41.02 10 40 C11.98 39.505 11.98 39.505 14 39 C14 27.78 14 16.56 14 5 C7.51602824 5.4059836 7.51602824 5.4059836 4.6875 7.5625 C0.7535568 13.2448624 0.69984609 20.07377374 0.8125 26.75 C0.81314453 27.49121094 0.81378906 28.23242188 0.81445312 28.99609375 C0.84271505 32.49429144 1.06457742 35.63527799 2 39 C3.32 39.33 4.64 39.66 6 40 C6 40.99 6 41.98 6 43 C-0.6 43 -7.2 43 -14 43 C-14 42.01 -14 41.02 -14 40 C-13.360625 39.87625 -12.72125 39.7525 -12.0625 39.625 C-11.381875 39.41875 -10.70125 39.2125 -10 39 C-8.60528458 36.21056915 -8.87026235 33.90239581 -8.8671875 30.78515625 C-8.86589844 29.54185547 -8.86460937 28.29855469 -8.86328125 27.01757812 C-8.86714844 25.71240234 -8.87101562 24.40722656 -8.875 23.0625 C-8.87113281 21.76119141 -8.86726563 20.45988281 -8.86328125 19.11914062 C-8.86521484 17.25225586 -8.86521484 17.25225586 -8.8671875 15.34765625 C-8.86831543 14.20304932 -8.86944336 13.05844238 -8.87060547 11.87915039 C-8.87176487 8.92917833 -8.87176487 8.92917833 -10 6 C-12.01508358 5.26676204 -12.01508358 5.26676204 -14 5 C-14 3.68 -14 2.36 -14 1 C-12.04175306 0.83232136 -10.08339945 0.66588795 -8.125 0.5 C-6.48917969 0.36078125 -6.48917969 0.36078125 -4.8203125 0.21875 C-3.21670436 0.09437042 -1.60842449 0 0 0 Z " fill="#FFFFFF" transform="translate(426,27)"/>
<path d="M0 0 C0.33 7.59 0.66 15.18 1 23 C3.64 21.68 6.28 20.36 9 19 C14.21681259 18.37038469 17.58831468 19.12727468 22 22 C24.36888689 25.47625433 24.29439395 28.7571991 24.37890625 32.8828125 C24.39590073 33.53829071 24.4128952 34.19376892 24.43040466 34.86911011 C24.48334452 36.95430997 24.5237547 39.03949193 24.5625 41.125 C24.60646519 43.21755068 24.65316249 45.30995 24.70530701 47.40231323 C24.75176556 49.29557571 24.78930633 51.18905073 24.82641602 53.08251953 C24.80429371 55.93633868 24.80429371 55.93633868 26 58 C28.02463255 58.65213292 28.02463255 58.65213292 30 59 C30 59.99 30 60.98 30 62 C23.4 62 16.8 62 10 62 C10.33 61.01 10.66 60.02 11 59 C12.485 58.505 12.485 58.505 14 58 C15.60827999 53.17516004 15.1845193 48.23979466 15.1875 43.1875 C15.20586914 41.56618164 15.20586914 41.56618164 15.22460938 39.91210938 C15.28253004 32.2493785 15.28253004 32.2493785 13 25 C11.22286468 23.74304733 11.22286468 23.74304733 9 24 C4.81387788 25.83780971 3.00685539 27.95221392 1 32 C0.5910938 34.89434503 0.5910938 34.89434503 0.70703125 37.95703125 C0.7215332 39.62475586 0.7215332 39.62475586 0.73632812 41.32617188 C0.76146484 42.47666016 0.78660156 43.62714844 0.8125 44.8125 C0.82603516 45.98232422 0.83957031 47.15214844 0.85351562 48.35742188 C0.88879722 51.238752 0.9380972 54.11913904 1 57 C2.32 57.66 3.64 58.32 5 59 C5 59.99 5 60.98 5 62 C-1.6 62 -8.2 62 -15 62 C-15 61.01 -15 60.02 -15 59 C-13.35 58.34 -11.7 57.68 -10 57 C-9.87342193 49.79193836 -9.78574228 42.58416226 -9.7253418 35.37524414 C-9.70016793 32.92201019 -9.66602637 30.46885145 -9.62280273 28.01586914 C-9.56228031 24.49346384 -9.53381852 20.97204833 -9.51171875 17.44921875 C-9.48591232 16.34913986 -9.4601059 15.24906097 -9.43351746 14.11564636 C-9.4324827 11.31860597 -9.45176285 8.7430575 -10 6 C-12.37272208 3.89325363 -12.37272208 3.89325363 -15 3 C-15 2.01 -15 1.02 -15 0 C-13.25093341 -0.19601608 -11.50068154 -0.38147403 -9.75 -0.5625 C-8.77546875 -0.66691406 -7.8009375 -0.77132813 -6.796875 -0.87890625 C-4 -1 -4 -1 0 0 Z " fill="#FFFFFF" transform="translate(79,8)"/>
<path d="M0 0 C0.33 19.47 0.66 38.94 1 59 C2.65 59.33 4.3 59.66 6 60 C6 60.99 6 61.98 6 63 C1.38 63.33 -3.24 63.66 -8 64 C-8.33 63.01 -8.66 62.02 -9 61 C-9.515625 61.474375 -10.03125 61.94875 -10.5625 62.4375 C-14.37532702 64.88161988 -17.80324587 65.38810579 -22.27734375 64.59765625 C-26.76607798 63.33543315 -30.26988591 61.79177872 -33.06640625 57.84375 C-36.94100191 50.19182887 -36.49393811 41.23278122 -35 33 C-33.38801636 28.61479331 -30.70116879 24.85518735 -27 22 C-21.47204336 19.72378256 -16.74899425 19.84083415 -11 21 C-10.34 21.33 -9.68 21.66 -9 22 C-8.97287847 20.083412 -8.95354903 18.1667127 -8.9375 16.25 C-8.92589844 15.18265625 -8.91429687 14.1153125 -8.90234375 13.015625 C-8.98557034 10.44558783 -9.110669 8.4011937 -10 6 C-11.9837767 4.71563266 -11.9837767 4.71563266 -14 4 C-14 3.01 -14 2.02 -14 1 C-12.22932584 0.83165067 -10.45845388 0.66538091 -8.6875 0.5 C-7.70136719 0.4071875 -6.71523438 0.314375 -5.69921875 0.21875 C-3 0 -3 0 0 0 Z M-24 28 C-26.40208141 32.50180291 -26.36677594 36.83283086 -26.375 41.8125 C-26.39949219 42.58142578 -26.42398437 43.35035156 -26.44921875 44.14257812 C-26.47799912 49.82670097 -25.26881655 54.28550593 -22 59 C-19.11138291 60.44430855 -17.20352299 60.37688506 -14 60 C-10.57548051 57.26038441 -8.75800844 55.29160755 -8 51 C-7.75673355 47.52386989 -7.76899832 44.04631629 -7.75 40.5625 C-7.729375 39.62083984 -7.70875 38.67917969 -7.6875 37.70898438 C-7.63331931 30.8532148 -7.63331931 30.8532148 -11 25 C-16.24613474 22.37693263 -20.12721099 24.01963352 -24 28 Z " fill="#FFFFFF" transform="translate(360,7)"/>
<path d="M0 0 C0.33 1.65 0.66 3.3 1 5 C1.61875 4.360625 2.2375 3.72125 2.875 3.0625 C7.15926397 0.23488578 10.91875429 -0.18728951 16 0 C20.05722154 1.18028263 21.46335838 2.09652366 23.6171875 5.72265625 C26.00064496 11.62506102 25.57679381 18.1715295 25.6875 24.4375 C25.72166016 25.74138672 25.75582031 27.04527344 25.79101562 28.38867188 C25.87316153 31.59236198 25.9424241 34.79578979 26 38 C27.65 38.66 29.3 39.32 31 40 C31 40.99 31 41.98 31 43 C24.4 43 17.8 43 11 43 C11 42.01 11 41.02 11 40 C12.32 39.34 13.64 38.68 15 38 C15.07419134 33.78250781 15.1286204 29.56536189 15.16479492 25.34741211 C15.17987589 23.91277448 15.2003438 22.47818292 15.22631836 21.04370117 C15.26273437 18.98084141 15.27973243 16.91859142 15.29296875 14.85546875 C15.3086792 13.61434326 15.32438965 12.37321777 15.34057617 11.09448242 C15.27621502 8.00105573 15.27621502 8.00105573 13.48168945 6.0715332 C12.99273193 5.71792725 12.50377441 5.36432129 12 5 C7.09547427 6.02916209 7.09547427 6.02916209 3.125 8.875 C1.15253937 12.60075897 0.87249705 15.95267689 0.8671875 20.1328125 C0.86589844 21.10347656 0.86460937 22.07414062 0.86328125 23.07421875 C0.86714844 24.08097656 0.87101562 25.08773437 0.875 26.125 C0.87113281 27.13949219 0.86726563 28.15398438 0.86328125 29.19921875 C0.86521484 30.65134766 0.86521484 30.65134766 0.8671875 32.1328125 C0.86831543 33.01855957 0.86944336 33.90430664 0.87060547 34.81689453 C0.8590456 37.04601582 0.8590456 37.04601582 2 39 C3.485 39.495 3.485 39.495 5 40 C5 40.99 5 41.98 5 43 C-1.6 43 -8.2 43 -15 43 C-14.67 42.01 -14.34 41.02 -14 40 C-11.525 39.505 -11.525 39.505 -9 39 C-9.01940234 34.49675506 -9.07105667 29.99546941 -9.15258789 25.49291992 C-9.17577965 23.96145302 -9.19016644 22.42982637 -9.19555664 20.89819336 C-9.20483892 18.69543788 -9.24580268 16.4951986 -9.29296875 14.29296875 C-9.2890361 13.60849167 -9.28510345 12.92401459 -9.28105164 12.21879578 C-9.2938424 10.03829756 -9.2938424 10.03829756 -10 7 C-12.40460461 4.98240073 -12.40460461 4.98240073 -15 4 C-14.67 3.01 -14.34 2.02 -14 1 C-12.04175306 0.83232136 -10.08339945 0.66588795 -8.125 0.5 C-6.48917969 0.36078125 -6.48917969 0.36078125 -4.8203125 0.21875 C-3.21670436 0.09437042 -1.60842449 0 0 0 Z " fill="#FFFFFF" transform="translate(290,27)"/>
<path d="M0 0 C2.7733683 4.44210023 3.40080746 7.9577891 3.51171875 13.1484375 C3.53864555 14.13452499 3.53864555 14.13452499 3.56611633 15.14053345 C3.61984437 17.21862572 3.65399125 19.29649347 3.6875 21.375 C3.72070653 22.79299976 3.75519924 24.21097001 3.79101562 25.62890625 C3.87554651 29.0857218 3.94253568 32.54261638 4 36 C6.475 35.505 6.475 35.505 9 35 C9 36.32 9 37.64 9 39 C5.2626144 41.4915904 3.42668417 41.45793285 -1 41 C-3.9375 39 -3.9375 39 -6 37 C-6.804375 37.66 -7.60875 38.32 -8.4375 39 C-12.45769501 41.67695449 -16.31483724 41.71746957 -21 41 C-23.89728868 39.7671112 -25.39683427 38.7754988 -27.3125 36.3125 C-28.33082652 32.88721989 -28.76668962 29.48908753 -28 26 C-25.28744953 21.75482646 -22.72552954 20.08245194 -18.0625 18.3125 C-17.04285156 17.91675781 -16.02320313 17.52101563 -14.97265625 17.11328125 C-13.99167969 16.74589844 -13.01070312 16.37851562 -12 16 C-10.33193221 15.33684686 -8.66475694 14.67142131 -7 14 C-6.97301811 12.37509046 -6.95361243 10.75005367 -6.9375 9.125 C-6.92589844 8.22007813 -6.91429687 7.31515625 -6.90234375 6.3828125 C-6.83750743 3.9831415 -6.83750743 3.9831415 -8 2 C-10.92713788 1.05065798 -12.42831368 0.76823527 -15.3125 1.9375 C-15.869375 2.288125 -16.42625 2.63875 -17 3 C-16.67 3.33 -16.34 3.66 -16 4 C-15.8125 6.9375 -15.8125 6.9375 -16 10 C-18 12 -18 12 -21 12.25 C-24 12 -24 12 -26 10 C-26.4375 6.625 -26.4375 6.625 -26 3 C-19.13004279 -4.47612991 -8.42962492 -4.95860289 0 0 Z M-11.375 20.3125 C-12.16648438 20.74175781 -12.95796875 21.17101562 -13.7734375 21.61328125 C-15.89307652 22.93340731 -17.44747833 24.04952183 -19 26 C-19.36841966 29.43858351 -19.58367385 31.90131981 -17.9375 35 C-14.73276125 36.65405871 -12.38694881 35.90721843 -9 35 C-6.4863918 32.58992715 -6.02424985 31.26771833 -5.70703125 27.765625 C-5.74183594 26.60546875 -5.77664063 25.4453125 -5.8125 24.25 C-5.83957031 23.07953125 -5.86664063 21.9090625 -5.89453125 20.703125 C-5.94673828 19.36507812 -5.94673828 19.36507812 -6 18 C-7.94935038 18 -9.7127514 19.40068402 -11.375 20.3125 Z " fill="#FFFFFF" transform="translate(265,30)"/>
<path d="M0 0 C4.69803875 4.12857951 6.80914541 8.76966443 7.3359375 14.92578125 C7.5285927 24.31479514 7.56856447 31.17762639 0.75 38.375 C-5.85597343 42.27852975 -11.18231808 42.37684294 -18.515625 40.74609375 C-23.53560978 39.23851971 -25.87056676 36.66718442 -28.3125 32.1875 C-31.4811509 24.36287226 -31.4811509 14.63712774 -28.3125 6.8125 C-25.84013311 2.19741514 -22.92126469 -0.16466753 -18.125 -2.25 C-11.59343764 -3.81757497 -5.85326771 -3.29553728 0 0 Z M-17 3 C-21.60094509 10.5586955 -22.07894811 19.24825457 -20.46875 27.83203125 C-19.18471157 32.59832608 -18.38621187 35.36167707 -14 38 C-11 38.66666667 -11 38.66666667 -8 38 C-3.6715361 33.91200631 -2.18941238 29.25818916 -1.69921875 23.4140625 C-1.40427947 12.09528948 -1.40427947 12.09528948 -6.48828125 2.3515625 C-10.36088287 -1.1107635 -13.15036897 -0.05996313 -17 3 Z " fill="#FFFFFF" transform="translate(400,30)"/>
<path d="M0 0 C4.91961821 5.30800912 4.20097761 8.00977607 5 16 C-3.25 16 -11.5 16 -20 16 C-19.7525 18.041875 -19.505 20.08375 -19.25 22.1875 C-19.11078125 23.33605469 -18.9715625 24.48460938 -18.828125 25.66796875 C-17.89928448 29.40523743 -16.65906621 31.25180308 -14 34 C-11.23785028 35.67073042 -11.23785028 35.67073042 -8 36 C-3.20988277 34.5386083 -0.8060907 33.06883152 2 29 C2.99 29 3.98 29 5 29 C4.49216139 33.44358783 3.25203984 35.91056215 0 39 C-5.88219492 42.28962668 -11.08652364 42.29077832 -17.55078125 40.78515625 C-22.44310804 39.21680269 -24.3839168 36.86584665 -27.3125 32.75 C-30.55303655 25.65800609 -30.25084988 16.24756681 -28.08203125 8.8828125 C-25.39696411 3.0260641 -22.18007833 -0.38190516 -16.0625 -2.75 C-9.91905605 -3.49465987 -5.45931271 -3.090177 0 0 Z M-16 2 C-18.89658482 5.8621131 -19.15738398 7.94430386 -20 13 C-14.72 13 -9.44 13 -4 13 C-5.11010698 5.47635799 -5.11010698 5.47635799 -10 0 C-12.60233337 0 -13.80010103 0.60006429 -16 2 Z " fill="#FFFFFF" transform="translate(142,30)"/>
<path d="M0 0 C2.5625 1.5 2.5625 1.5 4 4 C4.50350771 6.90980618 4.33546025 8.98085779 4 12 C2.43090339 14.12808728 1.43740246 14.87997612 -1.12109375 15.58203125 C-1.88550781 15.65808594 -2.64992188 15.73414062 -3.4375 15.8125 C-4.19933594 15.90144531 -4.96117187 15.99039063 -5.74609375 16.08203125 C-8.36251478 15.98680622 -9.80634932 15.40679772 -12 14 C-13.71171078 11.06563867 -14.0111846 9.27961498 -13.875 5.875 C-13 3 -13 3 -11.5 1.125 C-7.67431705 -0.59655733 -4.11991261 -0.65767412 0 0 Z " fill="#FFFFFF" transform="translate(498,56)"/>
</svg>
